<?xml version="1.0" encoding="utf-8"?>
<!-- Generator: Adobe Illustrator 25.3.1, SVG Export Plug-In . SVG Version: 6.00 Build 0)  -->
<svg version="1.1" id="Layer_1" xmlns="http://www.w3.org/2000/svg" xmlns:xlink="http://www.w3.org/1999/xlink" x="0px" y="0px"
	 viewBox="0 0 1853.8 396.1" style="enable-background:new 0 0 1853.8 396.1;" xml:space="preserve">
<style type="text/css">
	.st0{fill:#FFFFFF;}
</style>
<g id="Layer_2_1_">
	<g id="Layer_1-2">
		<g id="Word_Fixed">
			<path class="st0" d="M385.5,196.4c5.3,0,61.8-0.1,92.8,0c15,0,27.3-5.2,35.9-17.8c4-5.9,8.2-11.8,11.6-18
				c7.9-14.5,11.9-30,11.1-46.6c-0.9-21.1-8.4-40.1-20.5-57.1c-11.9-16.7-27.9-27.7-47.6-33.2c-9.6-2.6-19.6-4-29.6-3.9
				c-48.1-0.1-96.2-0.1-144.2-0.1c-3.6,0-7.2,0.5-10.7,1.4c-8.7,2.4-14.1,9.6-13.9,17.9c0.2,8.9,5.8,15.5,15.2,17.4
				c3.9,0.7,7.9,1.1,11.9,1.1c47.7,0.1,95.4,0,143,0.2c5.8,0,11.5,0.7,17.1,2.1c25.3,6.6,46.7,32.9,40.5,68.3
				c-5.1,29.2-29.4,47.8-56.8,47.4c-25.5-0.4-51.1-0.1-76.6,0.2c-6.2,0.1-12.3,0.8-18.4,1.9c-9.9,1.9-14.6,7.5-15.6,17.7
				c-0.2,2.2-0.1,4.4,0.1,6.6c0.8,8.5,5.2,14.2,13.4,16.4c5.2,1.4,10.5,2.1,15.9,2.2c26.1,0.2,52.2,0.1,78.4,0.2
				c5.4,0,10.7,0.6,16,1.6c35.2,7.1,50.6,46.1,43.8,70.6c-6.2,22.7-19.7,38.8-43.6,44.5c-9,2.2-18.2,1.9-27.4,1.9
				c-91.6-0.2-183.2-0.4-274.7-0.5c-23.4,0-46.7-0.1-70.1-0.2c-13.1-0.1-13.9-1-14-13.9c-0.1-18.5-0.1-37.1-0.1-55.7
				c0-56.6,0-113.3-0.1-170c0.1-5.6-1.1-11.1-3.6-16.1C55.4,64.4,46.2,45.9,37,27.2c-0.4-1.1-1-2.1-1.7-3.1
				c-1.2-1.5-3.2-1.2-3.5,0.7c-0.3,2.4-0.5,4.7-0.4,7.1c0,107,0,213.9,0.1,320.8c0,2.4,0,4.8,0.2,7.2c0.9,9.5,5.5,14.5,14.9,15.9
				c2.2,0.3,4.4,0.4,6.6,0.3H447c2.8,0.1,5.6,0,8.4-0.4c23.7-4,43.6-14.9,59-33.5c27.3-33.3,29.2-80.1,5.1-117.2
				c-10.8-16.7-25.6-25.3-45.9-24.9c-27.9,0.5-75,0-83.8,0s-12.1,0.4-12.1-1.8S380.2,196.4,385.5,196.4"/>
			<path class="st0" d="M997.4,57.7v120.6c2.4,0.2,4.5,0.5,6.6,0.5c26.7,0.1,53.5,0.2,80.2,0.2c27.5,0.1,55.1-0.1,82.6,0.1
				c8.4,0,16.7,0.4,25.1,1c10.1,0.7,16,6.8,16.6,16.9c0.6,10.5-4.5,17.9-14.2,19.9c-3.9,0.8-7.9,1.1-11.9,1.1
				c-59.1,0.1-118.2,0.1-177.2,0.1h-7.5V338c6.6,0.3,13,0.8,19.6,0.8c66.7,0.1,133.3,0.2,199.9,0.3c5.6,0,11.3,0.1,16.6,1.4
				c13.4,3.2,18.3,19.8,9.3,30.4c-2.9,3.3-7.2,5.3-11.6,5.3c-3.6,0.2-7.2,0.1-10.8,0.1c-78.8,0-157.6,0-236.4-0.1
				c-4.2,0-8.3-0.4-12.4-1.2c-7.1-1.4-11-6.3-12.1-13.2c-0.6-3.7-0.9-7.5-0.8-11.3V46.4c0-3.6,0.2-7.2,0.7-10.7
				c1.2-8.4,6.2-13.6,14.8-15c3.7-0.6,7.5-1,11.3-1c78.8-0.1,157.6-0.1,236.4,0c3.8,0,7.6,0.4,11.3,1.1c8.5,1.7,13.1,7.2,13.8,15.8
				c0.1,1.6,0.1,3.2,0,4.8c-0.5,7.9-4.6,13.2-12.3,14.9c-4.5,0.9-9,1.4-13.6,1.3c-72.2,0.1-144.4,0.1-216.7,0.1L997.4,57.7z"/>
			<path class="st0" d="M725.9,310.6c1.5-3,2.4-4.7,3.2-6.5c25-55.4,50-110.8,75.1-166.1c14.8-32.9,29.5-65.8,44.4-98.7
				c1.9-4.4,4.3-8.5,7.1-12.4c5.4-7,12.4-8.6,20.2-5.4c8.1,3.4,12.7,10.5,11.3,19c-0.9,5.1-2.4,10-4.6,14.7
				c-31.2,69.5-62.4,138.9-93.6,208.3c-14.3,31.8-28.6,63.6-42.8,95.5c-1.1,2.6-2.3,5.1-3.7,7.5c-6,10.1-13.2,10.6-21.3,9.4
				c-4.3-0.6-7.7-3.3-10.1-7c-1.9-3-3.6-6.2-5-9.5c-45.6-101.7-91.3-203.5-137-305.3c-1.6-3.4-2.9-6.9-3.9-10.6
				c-3.3-15.1,7.3-22.3,17.3-23.5c4.7-0.6,9.4,1.4,12.2,5.2c3.3,4,6,8.4,8.2,13.1c15.9,35,31.7,70.1,47.3,105.2
				c22.6,50.4,45.2,100.8,67.8,151.1C720.3,299.5,722.9,304.5,725.9,310.6"/>
			<path class="st0" d="M1670.9,196.4c5.3,0,61.8-0.1,92.8,0c15,0,27.3-5.2,35.9-17.8c4-5.9,8.2-11.8,11.6-18
				c7.9-14.5,11.9-30,11.1-46.6c-0.9-21.1-8.4-40.1-20.5-57.1c-11.9-16.7-27.9-27.7-47.6-33.2c-9.6-2.6-19.6-4-29.6-3.9
				c-48.1-0.1-96.2-0.1-144.2-0.1c-3.6,0-7.2,0.5-10.7,1.4c-8.7,2.4-14.1,9.6-13.9,17.9c0.2,8.9,5.8,15.5,15.2,17.4
				c3.9,0.7,7.9,1.1,11.9,1.1c47.7,0.1,95.4,0,143,0.2c5.8,0,11.5,0.7,17.1,2.1c25.3,6.6,46.7,32.9,40.5,68.3
				c-5.1,29.2-29.4,47.8-56.8,47.4c-25.5-0.4-51.1-0.1-76.6,0.2c-6.2,0.1-12.3,0.8-18.4,1.9c-9.9,1.9-14.6,7.5-15.6,17.7
				c-0.2,2.2-0.1,4.4,0.1,6.6c0.8,8.5,5.2,14.2,13.4,16.4c5.2,1.4,10.5,2.1,15.9,2.2c26.1,0.2,52.2,0.1,78.4,0.2
				c5.4,0,10.7,0.6,16,1.6c35.2,7.1,50.6,46.1,43.8,70.6c-6.2,22.7-19.7,38.8-43.6,44.5c-9,2.2-18.2,1.9-27.4,1.9
				c-91.6-0.2-190.9-0.3-282.5-0.5c-23.4,0-46.7-0.1-70.1-0.2c-13.1-0.1-13.9-1-14-13.9c-0.1-18.5-0.1-37.1-0.1-55.7
				c0-56.6,0-113.3-0.1-170c0.1-5.6-1.1-11.1-3.6-16.1c-9.3-18.5-18.6-37.1-27.7-55.7c-0.4-1.1-1-2.1-1.7-3.1
				c-1.2-1.5-3.2-1.2-3.5,0.7c-0.3,2.4-0.5,4.7-0.4,7.1c0,107,0,213.9,0.1,320.8c0,2.4,0,4.8,0.2,7.2c0.9,9.5,5.5,14.5,14.9,15.9
				c2.2,0.3,4.4,0.4,6.6,0.3h401.6c2.8,0.1,5.6,0,8.4-0.4c23.7-4,43.6-14.9,59-33.5c27.3-33.3,29.2-80.1,5.1-117.2
				c-10.8-16.7-25.6-25.3-45.9-24.9c-27.9,0.5-75,0-83.8,0s-12.1,0.4-12.1-1.8S1665.6,196.4,1670.9,196.4"/>
		</g>
	</g>
</g>
</svg>
